<?xml version="1.0" standalone="no"?>
<!DOCTYPE svg PUBLIC "-//W3C//DTD SVG 20010904//EN"
 "http://www.w3.org/TR/2001/REC-SVG-20010904/DTD/svg10.dtd">
<svg version="1.0" xmlns="http://www.w3.org/2000/svg"
 width="1024.000000pt" height="1024.000000pt" viewBox="0 0 1024.000000 1024.000000"
 preserveAspectRatio="xMidYMid meet">

<g transform="translate(0.000000,1024.000000) scale(0.100000,-0.100000)"
fill="#000000" stroke="none">
<path d="M0 5120 l0 -5120 5120 0 5120 0 0 5120 0 5120 -5120 0 -5120 0 0
-5120z m4213 2103 c-7 -2 -21 -2 -30 0 -10 3 -4 5 12 5 17 0 24 -2 18 -5z m95
0 c-16 -2 -40 -2 -55 0 -16 2 -3 4 27 4 30 0 43 -2 28 -4z m140 0 c-21 -2 -55
-2 -75 0 -21 2 -4 4 37 4 41 0 58 -2 38 -4z m810 0 c-142 -2 -374 -2 -515 0
-142 1 -26 2 257 2 283 0 399 -1 258 -2z m415 0 c-23 -2 -64 -2 -90 0 -26 2
-7 3 42 3 50 0 71 -1 48 -3z m200 0 c-29 -2 -77 -2 -105 0 -29 2 -6 3 52 3 58
0 81 -1 53 -3z m115 0 c-10 -2 -28 -2 -40 0 -13 2 -5 4 17 4 22 1 32 -1 23 -4z
m220 0 c-38 -2 -98 -2 -135 0 -38 2 -7 3 67 3 74 0 105 -1 68 -3z m105 0 c-7
-2 -19 -2 -25 0 -7 3 -2 5 12 5 14 0 19 -2 13 -5z m300 0 c-51 -2 -136 -2
-190 0 -54 1 -12 3 92 3 105 0 149 -2 98 -3z m124 1 c-3 -3 -12 -4 -19 -1 -8
3 -5 6 6 6 11 1 17 -2 13 -5z m106 -1 c-18 -2 -48 -2 -65 0 -18 2 -4 4 32 4
36 0 50 -2 33 -4z m405 0 c-65 -2 -171 -2 -235 0 -65 1 -12 3 117 3 129 0 182
-2 118 -3z m180 0 c-10 -2 -26 -2 -35 0 -10 3 -2 5 17 5 19 0 27 -2 18 -5z
m85 0 c-13 -2 -33 -2 -45 0 -13 2 -3 4 22 4 25 0 35 -2 23 -4z m280 0 c-45 -2
-122 -2 -170 0 -48 1 -11 3 82 3 94 0 133 -2 88 -3z m148 -39 c25 -12 61 -35
81 -53 25 -22 38 -28 41 -19 3 7 5 4 4 -7 0 -11 10 -42 24 -70 l24 -50 0
-1370 0 -1370 -24 -53 c-29 -64 -102 -133 -169 -159 -44 -17 -99 -18 -862 -21
l-816 -3 -323 -323 c-216 -217 -321 -328 -316 -337 5 -7 4 -10 -2 -6 -12 7
-93 -59 -93 -75 0 -6 8 -5 18 4 9 8 24 18 32 22 8 4 2 -3 -14 -15 -17 -13 -36
-24 -43 -25 -18 -3 -43 -24 -43 -36 0 -6 8 -4 18 3 15 12 15 11 -1 -8 -11 -12
-25 -19 -34 -16 -9 4 -13 1 -11 -8 1 -8 0 -14 -4 -14 -11 0 -58 -48 -53 -55 2
-4 -1 -7 -8 -8 -97 -15 -96 -15 -127 18 l-30 32 0 419 0 419 -330 0 -330 0 0
963 c0 896 -1 964 -18 996 -23 47 -64 75 -110 75 -20 0 -111 -10 -202 -22 -91
-12 -190 -22 -220 -24 l-55 -2 -3 503 c-3 564 -5 544 72 628 19 22 33 42 31
45 -3 3 7 13 22 22 l28 17 -24 -20 c-29 -26 -29 -26 44 4 l60 25 1860 -3 1860
-2 46 -21z m-3972 -105 c-6 -12 -13 -18 -16 -15 -3 3 -1 12 5 19 7 8 8 18 4
22 -4 5 -1 5 6 1 9 -5 9 -12 1 -27z m4168 -2132 c-1 -370 -2 -64 -2 678 0 743
1 1045 2 672 2 -373 2 -981 0 -1350z m-3673 1065 c3 -5 -1 -9 -9 -9 -8 0 -15
4 -15 9 0 4 4 8 9 8 6 0 12 -4 15 -8z m-137 -8 c-3 -3 -12 -4 -19 -1 -8 3 -5
6 6 6 11 1 17 -2 13 -5z m-164 -21 c-7 -2 -19 -2 -25 0 -7 3 -2 5 12 5 14 0
19 -2 13 -5z m-80 -10 c-7 -2 -21 -2 -30 0 -10 3 -4 5 12 5 17 0 24 -2 18 -5z
m-110 -10 c-7 -2 -19 -2 -25 0 -7 3 -2 5 12 5 14 0 19 -2 13 -5z m564 -1008
c-1 -528 -3 -861 -4 -740 -7 532 -7 1733 -1 1717 4 -9 6 -449 5 -977z m-149
958 c-10 -2 -28 -2 -40 0 -13 2 -5 4 17 4 22 1 32 -1 23 -4z m-80 -10 c-10 -2
-26 -2 -35 0 -10 3 -2 5 17 5 19 0 27 -2 18 -5z m120 -1260 l-3 -1268 -28 -59
c-15 -33 -39 -75 -52 -92 -31 -41 -32 -53 -2 -28 l22 19 -19 -22 c-10 -13 -22
-20 -26 -18 -5 3 -28 -11 -52 -32 -158 -132 -430 -162 -598 -65 -141 82 -220
212 -220 368 0 185 113 336 309 411 57 22 82 26 186 26 118 1 147 -5 248 -48
16 -7 17 23 17 556 0 310 -3 574 -6 585 -12 44 -40 47 -175 20 -102 -21 -296
-59 -419 -82 -14 -3 -44 -9 -68 -15 -23 -5 -59 -12 -80 -15 -20 -3 -40 -8 -43
-10 -3 -2 -21 -6 -40 -9 -32 -5 -90 -17 -313 -64 -146 -32 -130 57 -137 -779
-5 -621 -8 -723 -21 -763 -21 -60 -44 -106 -75 -147 -18 -24 -22 -36 -14 -46
8 -9 7 -13 -4 -13 -8 0 -12 4 -9 9 11 17 -6 7 -38 -23 -120 -111 -355 -156
-528 -99 -41 13 -80 24 -87 23 -7 0 -11 4 -10 9 1 6 -4 13 -12 16 -9 3 -11 0
-6 -9 5 -8 5 -11 1 -7 -4 3 -8 10 -8 15 0 12 -19 33 -30 33 -6 0 -4 -8 3 -17
11 -15 9 -14 -9 1 -12 11 -20 21 -17 24 2 3 -11 27 -31 53 -73 100 -99 237
-66 349 11 36 23 74 27 84 6 15 5 17 -5 11 -9 -5 -11 -4 -6 4 4 6 11 9 16 6 4
-3 18 10 29 29 28 44 106 116 161 148 137 79 343 89 472 22 l28 -15 0 887 c0
996 -5 929 75 959 93 35 1171 264 1475 314 178 29 174 28 183 30 4 0 6 -569 5
-1266z m-181 1251 c-3 -3 -12 -4 -19 -1 -8 3 -5 6 6 6 11 1 17 -2 13 -5z m210
-16 c-3 -8 -6 -5 -6 6 -1 11 2 17 5 13 3 -3 4 -12 1 -19z m-270 6 c-3 -3 -12
-4 -19 -1 -8 3 -5 6 6 6 11 1 17 -2 13 -5z m-60 -10 c-3 -3 -12 -4 -19 -1 -8
3 -5 6 6 6 11 1 17 -2 13 -5z m-50 -10 c-3 -3 -12 -4 -19 -1 -8 3 -5 6 6 6 11
1 17 -2 13 -5z m-142 -24 c-3 -5 -12 -10 -18 -10 -7 0 -6 4 3 10 19 12 23 12
15 0z m42 4 c-3 -3 -12 -4 -19 -1 -8 3 -5 6 6 6 11 1 17 -2 13 -5z m-400 -80
c-3 -3 -12 -4 -19 -1 -8 3 -5 6 6 6 11 1 17 -2 13 -5z m-37 -8 c0 -2 -11 -6
-25 -8 -13 -3 -22 -1 -19 3 5 9 44 13 44 5z m-143 -32 c-3 -3 -12 -4 -19 -1
-8 3 -5 6 6 6 11 1 17 -2 13 -5z m-92 -14 c3 -6 -4 -10 -17 -10 -18 0 -20 2
-8 10 19 12 18 12 25 0z m-92 -27 c-7 -2 -19 -2 -25 0 -7 3 -2 5 12 5 14 0 19
-2 13 -5z m-239 -54 c-29 -12 -36 -10 -22 5 7 7 19 11 27 8 11 -4 10 -7 -5
-13z m63 15 c-3 -3 -12 -4 -19 -1 -8 3 -5 6 6 6 11 1 17 -2 13 -5z m-140 -30
c-3 -3 -12 -4 -19 -1 -8 3 -5 6 6 6 11 1 17 -2 13 -5z m-138 -27 c20 8 12 -1
-14 -15 -17 -9 -21 -7 -21 9 0 11 4 15 9 10 5 -5 17 -7 26 -4z m-82 -1420 c-1
-238 -2 -40 -2 438 0 479 1 673 2 432 2 -241 2 -633 0 -870z m1450 827 c-3 -3
-12 -4 -19 -1 -8 3 -5 6 6 6 11 1 17 -2 13 -5z m47 0 c9 -3 16 -13 16 -22 0
-14 -1 -14 -12 0 -7 9 -20 18 -28 21 -8 3 -10 6 -3 6 6 1 18 -2 27 -5z m-164
-24 c-14 -4 -34 -8 -45 -8 -16 0 -15 2 5 8 14 4 34 8 45 8 16 0 15 -2 -5 -8z
m-293 -56 c-3 -3 -12 -4 -19 -1 -8 3 -5 6 6 6 11 1 17 -2 13 -5z m-44 -11 c-7
-2 -19 -2 -25 0 -7 3 -2 5 12 5 14 0 19 -2 13 -5z m-50 -10 c-7 -2 -19 -2 -25
0 -7 3 -2 5 12 5 14 0 19 -2 13 -5z m-50 -10 c-7 -2 -19 -2 -25 0 -7 3 -2 5
12 5 14 0 19 -2 13 -5z m-56 -9 c-3 -3 -12 -4 -19 -1 -8 3 -5 6 6 6 11 1 17
-2 13 -5z m-40 -10 c-3 -3 -12 -4 -19 -1 -8 3 -5 6 6 6 11 1 17 -2 13 -5z
m-37 -8 c0 -3 -4 -8 -10 -11 -5 -3 -10 -1 -10 4 0 6 5 11 10 11 6 0 10 -2 10
-4z m-120 -26 c0 -5 -2 -10 -4 -10 -3 0 -8 5 -11 10 -3 6 -1 10 4 10 6 0 11
-4 11 -10z m-105 -20 c-11 -5 -31 -8 -45 -8 -23 0 -22 1 5 8 42 11 65 11 40 0z
m-98 -16 c-3 -3 -12 -4 -19 -1 -8 3 -5 6 6 6 11 1 17 -2 13 -5z m-40 -10 c-3
-3 -12 -4 -19 -1 -8 3 -5 6 6 6 11 1 17 -2 13 -5z m-130 -1066 c-1 -183 -2
-34 -2 332 0 366 1 515 2 333 2 -183 2 -483 0 -665z m1510 820 c-3 -8 -6 -5
-6 6 -1 11 2 17 5 13 3 -3 4 -12 1 -19z m3418 -538 c-16 -4 -390 -7 -830 -6
l-800 1 805 5 c443 3 816 6 830 6 21 1 20 0 -5 -6z m-3037 -17 c-42 -2 -114
-2 -160 0 -46 1 -11 3 77 3 88 0 125 -2 83 -3z m179 0 c-20 -2 -52 -2 -70 0
-17 2 0 4 38 4 39 0 53 -2 32 -4z m91 0 c-10 -2 -26 -2 -35 0 -10 3 -2 5 17 5
19 0 27 -2 18 -5z m89 -325 c-1 -62 -3 -12 -3 112 0 124 2 174 3 113 2 -62 2
-164 0 -225z m1043 312 c0 -5 -5 -10 -11 -10 -5 0 -7 5 -4 10 3 6 8 10 11 10
2 0 4 -4 4 -10z m-20 -24 c0 -2 -17 -16 -37 -31 l-38 -27 33 31 c30 29 42 37
42 27z m-2242 -43 c-15 -2 -42 -2 -60 0 -18 2 -6 4 27 4 33 0 48 -2 33 -4z
m2155 -38 c-3 -9 -8 -14 -10 -11 -3 3 -2 9 2 15 9 16 15 13 8 -4z m-3720 -72
c-13 -2 -35 -2 -50 0 -16 2 -5 4 22 4 28 0 40 -2 28 -4z m124 1 c-3 -3 -12 -4
-19 -1 -8 3 -5 6 6 6 11 1 17 -2 13 -5z m40 -10 c-3 -3 -12 -4 -19 -1 -8 3 -5
6 6 6 11 1 17 -2 13 -5z m78 -32 c-3 -3 -11 0 -18 7 -9 10 -8 11 6 5 10 -3 15
-9 12 -12z m876 -35 c-10 -9 -11 -8 -5 6 3 10 9 15 12 12 3 -3 0 -11 -7 -18z
m2389 -77 c0 -5 -2 -10 -4 -10 -3 0 -8 5 -11 10 -3 6 -1 10 4 10 6 0 11 -4 11
-10z m-2467 -65 c-3 -9 -8 -14 -10 -11 -3 3 -2 9 2 15 9 16 15 13 8 -4z m1744
-317 c-1 -51 -3 -12 -3 87 0 99 2 141 3 93 2 -48 2 -129 0 -180z m503 179 c0
-2 -10 -12 -22 -23 l-23 -19 19 23 c18 21 26 27 26 19z m-2263 -69 c-3 -7 -5
-2 -5 12 0 14 2 19 5 13 2 -7 2 -19 0 -25z m-1500 -55 c-2 -16 -4 -5 -4 22 0
28 2 40 4 28 2 -13 2 -35 0 -50z m18 -98 c9 -40 -3 -27 -15 15 -5 19 -6 29 -1
24 5 -5 12 -22 16 -39z m3263 -90 c-3 -3 -9 2 -12 12 -6 14 -5 15 5 6 7 -7 10
-15 7 -18z m-1563 -55 c3 -5 1 -10 -4 -10 -6 0 -11 5 -11 10 0 6 2 10 4 10 3
0 8 -4 11 -10z m40 -28 c-3 -3 -11 0 -18 7 -9 10 -8 11 6 5 10 -3 15 -9 12
-12z m460 8 c-3 -5 -12 -10 -18 -10 -7 0 -6 4 3 10 19 12 23 12 15 0z m-292
-47 c-7 -2 -19 -2 -25 0 -7 3 -2 5 12 5 14 0 19 -2 13 -5z m124 1 c-3 -3 -12
-4 -19 -1 -8 3 -5 6 6 6 11 1 17 -2 13 -5z m-1272 -34 c-3 -5 -14 -10 -23 -9
-14 0 -13 2 3 9 27 11 27 11 20 0z m-402 -67 c3 -5 -8 -8 -23 -8 -15 0 -26 3
-23 8 2 4 13 7 23 7 10 0 21 -3 23 -7z m125 -10 c-16 -2 -40 -2 -55 0 -16 2
-3 4 27 4 30 0 43 -2 28 -4z"/>
<path d="M5715 6725 c-370 -70 -644 -303 -759 -647 -33 -98 -36 -114 -43 -248
-9 -187 21 -338 100 -495 39 -79 86 -147 97 -140 5 3 12 0 16 -6 4 -8 3 -9 -4
-5 -24 15 -10 -8 39 -66 32 -36 57 -57 66 -54 8 3 12 2 9 -3 -9 -13 84 -87
172 -137 256 -147 598 -163 881 -42 42 19 76 38 76 45 0 6 4 15 9 20 5 5 6 3
2 -4 -10 -18 5 -16 32 3 29 20 60 26 68 12 5 -7 2 -8 -6 -3 -8 5 -11 3 -8 -6
3 -8 12 -13 20 -13 9 1 15 -5 14 -14 0 -8 5 -17 12 -19 8 -3 10 1 5 14 -7 19
-5 18 17 -11 10 -13 10 -17 3 -12 -39 23 9 -30 200 -222 116 -118 232 -227
256 -243 91 -59 225 -28 271 61 24 48 26 128 4 173 -9 18 -138 154 -287 304
l-270 271 37 71 c89 169 122 321 113 516 -9 185 -51 321 -145 470 -61 96 -141
187 -159 181 -8 -3 -12 -2 -8 3 3 5 -14 25 -37 45 -41 35 -66 47 -52 24 4 -7
3 -8 -5 -4 -6 4 -9 11 -6 16 14 23 -176 117 -305 150 -112 29 -313 36 -425 15z
m152 -1 c-3 -3 -12 -4 -19 -1 -8 3 -5 6 6 6 11 1 17 -2 13 -5z m166 -11 c-7
-2 -19 -2 -25 0 -7 3 -2 5 12 5 14 0 19 -2 13 -5z m93 -21 c-10 -2 -22 0 -28
6 -6 6 0 7 19 4 21 -5 23 -7 9 -10z m-449 2 c-3 -3 -12 -4 -19 -1 -8 3 -5 6 6
6 11 1 17 -2 13 -5z m568 -34 c3 -5 -4 -6 -15 -3 -11 3 -22 9 -25 13 -3 5 4 6
15 3 11 -3 22 -9 25 -13z m42 -16 c-3 -3 -12 -4 -19 -1 -8 3 -5 6 6 6 11 1 17
-2 13 -5z m-910 -67 c0 -7 -9 -14 -20 -14 -19 -2 -19 -2 -1 12 11 8 19 15 20
15 0 0 1 -6 1 -13z m-97 -61 c0 -2 -8 -10 -17 -17 -16 -13 -17 -12 -4 4 13 16
21 21 21 13z m527 -102 c-3 -3 -12 -4 -19 -1 -8 3 -5 6 6 6 11 1 17 -2 13 -5z
m181 -1 c-10 -2 -26 -2 -35 0 -10 3 -2 5 17 5 19 0 27 -2 18 -5z m-221 -9 c-3
-3 -12 -4 -19 -1 -8 3 -5 6 6 6 11 1 17 -2 13 -5z m258 -18 c227 -54 414 -234
470 -454 20 -78 23 -231 6 -302 -52 -217 -216 -391 -441 -466 -41 -14 -85 -18
-170 -18 -121 0 -174 11 -272 60 -26 13 -53 21 -61 18 -8 -3 -18 -1 -22 5 -4
7 1 9 12 5 11 -3 9 1 -7 13 -14 10 -55 46 -91 80 -36 35 -69 60 -74 56 -4 -5
-5 -2 -1 5 11 18 -12 42 -32 35 -12 -3 -13 -2 -4 4 10 7 5 26 -22 84 -35 76
-66 200 -66 264 0 71 31 192 72 275 33 68 58 101 122 165 44 44 80 84 81 88 0
11 36 37 49 37 6 -1 -2 -8 -17 -16 -52 -28 -20 -26 35 2 133 69 298 91 433 60z
m65 4 c8 -5 11 -10 5 -10 -5 0 -17 5 -25 10 -8 5 -10 10 -5 10 6 0 17 -5 25
-10z m-940 -3 c0 -2 -10 -12 -22 -23 l-23 -19 19 23 c18 21 26 27 26 19z
m1061 -54 c13 -16 12 -17 -3 -4 -10 7 -18 15 -18 17 0 8 8 3 21 -13z m557
-168 c-3 -3 -9 2 -12 12 -6 14 -5 15 5 6 7 -7 10 -15 7 -18z m-323 -56 c22
-41 11 -36 -14 7 -12 19 -16 32 -11 29 6 -3 17 -19 25 -36z m345 6 c0 -5 -5
-3 -10 5 -5 8 -10 20 -10 25 0 6 5 3 10 -5 5 -8 10 -19 10 -25z m-1817 -50
c-3 -9 -8 -14 -10 -11 -3 3 -2 9 2 15 9 16 15 13 8 -4z m341 2 c-3 -8 -12 -14
-21 -14 -13 0 -13 2 3 14 10 7 19 13 21 13 1 0 0 -6 -3 -13z m1160 -13 c3 -8
2 -12 -4 -9 -6 3 -10 10 -10 16 0 14 7 11 14 -7z m343 -36 c-3 -8 -6 -5 -6 6
-1 11 2 17 5 13 3 -3 4 -12 1 -19z m-309 -49 c-3 -8 -7 -3 -11 10 -4 17 -3 21
5 13 5 -5 8 -16 6 -23z m-1566 -21 c-6 -6 -7 0 -4 19 5 21 7 23 10 9 2 -10 0
-22 -6 -28z m1885 20 c-3 -8 -6 -5 -6 6 -1 11 2 17 5 13 3 -3 4 -12 1 -19z
m-287 -2 c0 -2 -8 -10 -17 -17 -16 -13 -17 -12 -4 4 13 16 21 21 21 13z
m-1603 -68 c-3 -7 -5 -2 -5 12 0 14 2 19 5 13 2 -7 2 -19 0 -25z m1900 10 c-3
-8 -6 -5 -6 6 -1 11 2 17 5 13 3 -3 4 -12 1 -19z m-1587 -28 c0 -11 -4 -20 -9
-20 -5 0 -7 9 -4 20 3 11 7 20 9 20 2 0 4 -9 4 -20z m1290 6 c0 -3 -4 -8 -10
-11 -5 -3 -10 -1 -10 4 0 6 5 11 10 11 6 0 10 -2 10 -4z m-1613 -163 c-2 -27
-3 -5 -3 47 0 52 1 74 3 48 2 -27 2 -69 0 -95z m1610 15 c-2 -24 -4 -7 -4 37
0 44 2 63 4 43 2 -21 2 -57 0 -80z m310 -10 c-2 -24 -4 -7 -4 37 0 44 2 63 4
43 2 -21 2 -57 0 -80z m-1610 35 c-3 -10 -5 -4 -5 12 0 17 2 24 5 18 2 -7 2
-21 0 -30z m10 -100 c-3 -10 -5 -2 -5 17 0 19 2 27 5 18 2 -10 2 -26 0 -35z
m1280 -15 c-3 -8 -6 -5 -6 6 -1 11 2 17 5 13 3 -3 4 -12 1 -19z m310 -20 c-3
-7 -5 -2 -5 12 0 14 2 19 5 13 2 -7 2 -19 0 -25z m-1893 -18 c4 -25 3 -31 -4
-20 -5 8 -10 26 -10 39 0 32 6 24 14 -19z m342 -67 c7 -18 11 -33 8 -33 -7 0
-34 67 -33 82 0 8 3 8 6 -2 3 -8 12 -30 19 -47z m-328 -9 c-3 -14 -5 -12 -10
9 -3 19 -2 25 4 19 6 -6 8 -18 6 -28z m1859 -6 c-3 -7 -5 -2 -5 12 0 14 2 19
5 13 2 -7 2 -19 0 -25z m-1497 -58 c7 -13 7 -21 -2 -26 -7 -4 -10 -3 -5 1 4 5
0 19 -9 33 -9 13 -11 21 -5 18 6 -4 15 -16 21 -26z m-326 -36 c3 -8 2 -12 -4
-9 -6 3 -10 10 -10 16 0 14 7 11 14 -7z m1769 -64 c-3 -11 -10 -23 -16 -27 -5
-3 -8 -2 -5 3 3 5 8 17 11 27 9 24 16 22 10 -3z m-1685 -105 c12 -14 18 -25
13 -25 -5 0 -16 11 -25 25 -9 14 -15 25 -13 25 2 0 13 -11 25 -25z m1653 -72
c13 -16 12 -17 -3 -4 -17 13 -22 21 -14 21 2 0 10 -8 17 -17z m-1041 -33 c8
-5 11 -10 5 -10 -5 0 -17 5 -25 10 -8 5 -10 10 -5 10 6 0 17 -5 25 -10z m76
-28 c-10 -2 -22 0 -28 6 -6 6 0 7 19 4 21 -5 23 -7 9 -10z m307 11 c-7 -2 -19
-2 -25 0 -7 3 -2 5 12 5 14 0 19 -2 13 -5z m-46 -9 c-3 -3 -12 -4 -19 -1 -8 3
-5 6 6 6 11 1 17 -2 13 -5z m-832 -24 c10 -11 16 -20 13 -20 -3 0 -13 9 -23
20 -10 11 -16 20 -13 20 3 0 13 -9 23 -20z m753 13 c-21 -2 -57 -2 -80 0 -24
2 -7 4 37 4 44 0 63 -2 43 -4z m923 -70 c13 -16 12 -17 -3 -4 -10 7 -18 15
-18 17 0 8 8 3 21 -13z m-1581 -29 c0 -2 -9 0 -20 6 -11 6 -20 13 -20 16 0 2
9 0 20 -6 11 -6 20 -13 20 -16z m1661 -51 c13 -16 12 -17 -3 -4 -10 7 -18 15
-18 17 0 8 8 3 21 -13z m-1256 -133 c25 -11 -1 -11 -35 0 -20 6 -21 8 -5 8 11
0 29 -3 40 -8z m78 -17 c-7 -2 -19 -2 -25 0 -7 3 -2 5 12 5 14 0 19 -2 13 -5z
m260 0 c-7 -2 -19 -2 -25 0 -7 3 -2 5 12 5 14 0 19 -2 13 -5z m1078 -10 c13
-16 12 -17 -3 -4 -10 7 -18 15 -18 17 0 8 8 3 21 -13z m156 -255 c-3 -8 -6 -5
-6 6 -1 11 2 17 5 13 3 -3 4 -12 1 -19z m-149 -145 c-10 -2 -28 -2 -40 0 -13
2 -5 4 17 4 22 1 32 -1 23 -4z"/>
</g>
</svg>
